<svg width="116" height="116" viewBox="0 0 116 116" fill="none" xmlns="http://www.w3.org/2000/svg">
<path d="M41 41L41 75L99 75C108.389 75 116 67.3888 116 58C116 48.6112 108.389 41 99 41L41 41Z" fill="#B8D470"/>
<path d="M41 99C41 108.389 48.6112 116 58 116V116C67.3888 116 75 108.389 75 99V41H41V99Z" fill="#B8D470"/>
<path d="M75 41L75 75L17 75C7.61116 75 -1.15349e-06 67.3888 -7.43094e-07 58C-3.32694e-07 48.6112 7.61116 41 17 41L75 41Z" fill="#3FBBC0"/>
<path d="M41 17C41 7.61116 48.6112 0 58 0V0C67.3888 0 75 7.61116 75 17V75H41V17Z" fill="#3FBBC0"/>
<path d="M41 41V39.5L75 73.5V75H73.5L39.5 41H41Z" fill="white"/>
<circle cx="22.5" cy="23.5" r="9.5" fill="#21AAD2"/>
</svg>
